<svg width="40" height="57" viewBox="0 0 40 57" fill="none" xmlns="http://www.w3.org/2000/svg">
<g id="Layer_x0020_1">
<path id="Vector" fill-rule="evenodd" clip-rule="evenodd" d="M16.0918 34.0682L32.9196 31.1704L39.9996 47.7237L31.244 47.6237L24.0496 53.4604L16.0918 34.0682Z" fill="#D0401B"/>
<path id="Vector_2" fill-rule="evenodd" clip-rule="evenodd" d="M25.7711 32.2314L7.73 32.7092L0 51.0959L8.75556 50.9948L15.95 56.8314L25.7711 32.2314Z" fill="#FF6600"/>
<path id="Vector_3" fill-rule="evenodd" clip-rule="evenodd" d="M20.3568 0.0036837C21.3957 -0.0407607 22.2146 0.321461 23.0402 0.847017C24.0891 1.51146 25.2691 2.82479 26.7257 3.65813C28.7757 4.82924 32.5713 3.21368 34.5157 6.10146C35.6502 7.78591 35.7035 9.10591 35.788 10.4104C35.8791 11.8181 36.1257 13.1126 37.5657 15.0181C39.9513 18.1715 40.448 20.2704 39.2191 22.4581C38.3813 23.9492 36.618 24.7781 36.2091 25.7226C35.3413 27.7326 36.3013 29.247 35.1124 31.5903C34.2868 33.2148 33.0135 34.2859 31.3169 34.8326C29.8857 35.2926 28.4502 34.627 27.3057 35.1081C25.2924 35.9537 23.808 37.9192 22.2068 38.4159C21.588 38.6081 20.9724 38.7026 20.3568 38.6981C19.7424 38.7026 19.1257 38.6081 18.508 38.4159C16.9057 37.9192 15.4213 35.9537 13.408 35.1081C12.2635 34.627 10.828 35.2926 9.39685 34.8326C7.70129 34.2859 6.42685 33.2148 5.60129 31.5903C4.4124 29.247 5.3724 27.7326 4.50463 25.7226C4.09574 24.7781 2.3324 23.9492 1.49463 22.4581C0.265738 20.2704 0.763516 18.1715 3.14796 15.0181C4.58796 13.1126 4.83463 11.8181 4.92574 10.4104C5.01018 9.10591 5.06352 7.78591 6.19796 6.10146C8.1424 3.21368 11.938 4.82924 13.988 3.65813C15.4457 2.82479 16.6246 1.51146 17.6735 0.847017C18.5002 0.321461 19.3191 -0.0407607 20.3568 0.0036837Z" fill="#F5C800"/>
<path id="Vector_4" fill-rule="evenodd" clip-rule="evenodd" d="M20.3569 0.00482713C21.3958 -0.0407284 22.2136 0.322605 23.0402 0.847049C24.0891 1.51149 25.2691 2.82483 26.7258 3.65816C28.3558 4.58927 31.0902 3.75927 33.1191 4.83149L10.2169 34.9893C9.94467 34.9671 9.67023 34.9204 9.3969 34.8326C7.70023 34.2859 6.4269 33.2159 5.60134 31.5904C4.41245 29.2471 5.37245 27.7326 4.50467 25.7226C4.09579 24.7782 2.33245 23.9493 1.49467 22.4582C0.265785 20.2704 0.763563 18.1715 3.1469 15.0182C4.58801 13.1137 4.83467 11.8182 4.92579 10.4104C5.01023 9.10594 5.06356 7.78594 6.1969 6.10149C8.14245 3.21261 11.9391 4.82927 13.988 3.65816C15.4458 2.82483 16.6258 1.51149 17.6736 0.847049C18.5002 0.322605 19.3191 -0.0407284 20.3569 0.00482713Z" fill="#FFDD61"/>
<path id="Vector_5" d="M20.3014 34.097C28.2813 34.097 34.7503 27.628 34.7503 19.6481C34.7503 11.6682 28.2813 5.19922 20.3014 5.19922C12.3215 5.19922 5.85254 11.6682 5.85254 19.6481C5.85254 27.628 12.3215 34.097 20.3014 34.097Z" fill="#E37E00"/>
<path id="Vector_6" fill-rule="evenodd" clip-rule="evenodd" d="M20.301 8.09814C26.6799 8.09814 31.8499 13.2693 31.8499 19.6481C31.8499 26.027 26.6799 31.1981 20.301 31.1981C13.9221 31.1981 8.75098 26.027 8.75098 19.6481C8.75098 13.2693 13.9221 8.09814 20.301 8.09814Z" fill="#F5C800"/>
<path id="Vector_7" fill-rule="evenodd" clip-rule="evenodd" d="M20.301 8.09814C23.3543 8.09814 26.1332 9.2837 28.1976 11.2193L14.0376 29.3526C13.5243 29.0215 13.0388 28.6493 12.5854 28.2426C10.2321 26.1293 8.75098 23.0615 8.75098 19.6481C8.75098 13.2693 13.9221 8.09814 20.301 8.09814Z" fill="#FFDD61"/>
<path id="Vector_8" d="M20.6419 12.8981L22.4541 17.1414L27.0497 17.5536C27.253 17.5714 27.403 17.7503 27.3852 17.9525C27.3775 18.0514 27.3308 18.1381 27.2608 18.1981L23.7841 21.2347L24.813 25.7347C24.8586 25.9336 24.7341 26.1314 24.5352 26.177C24.433 26.2003 24.3319 26.1792 24.2508 26.127L20.3008 23.7647L16.3386 26.1336C16.1641 26.2381 15.9375 26.1814 15.833 26.007C15.7819 25.9214 15.7697 25.8247 15.7897 25.7347L16.8186 21.2347L13.3408 18.1981C13.1875 18.0647 13.1719 17.8314 13.3064 17.6781C13.3741 17.6003 13.4686 17.5581 13.5641 17.5525L18.1486 17.1414L19.9619 12.8959C20.0419 12.7081 20.2586 12.6214 20.4452 12.7014C20.5386 12.7403 20.6064 12.8125 20.6419 12.8981Z" fill="#E37E00"/>
</g>
</svg>
